<?xml version="1.0" ?><!-- Created with Inkscape (http://www.inkscape.org/) --><!DOCTYPE svg  PUBLIC '-//W3C//DTD SVG 1.1//EN'  'http://www.w3.org/Graphics/SVG/1.1/DTD/svg11.dtd' [
	<!ENTITY stroke_color "#000000">
	<!ENTITY fill_color "#ffffff">
]><svg height="55" id="svg3765" inkscape:version="0.48.4 r9939" sodipodi:docname="editor.svg" version="1.1" width="55" xmlns="http://www.w3.org/2000/svg" xmlns:cc="http://creativecommons.org/ns#" xmlns:dc="http://purl.org/dc/elements/1.1/" xmlns:inkscape="http://www.inkscape.org/namespaces/inkscape" xmlns:rdf="http://www.w3.org/1999/02/22-rdf-syntax-ns#" xmlns:sodipodi="http://sodipodi.sourceforge.net/DTD/sodipodi-0.dtd" xmlns:svg="http://www.w3.org/2000/svg">
  <defs id="defs3767"/>
  <sodipodi:namedview bordercolor="#666666" borderopacity="1.0" id="base" inkscape:current-layer="layer1" inkscape:cx="-5.5399811" inkscape:cy="26.854246" inkscape:document-units="px" inkscape:grid-bbox="true" inkscape:pageopacity="0.0" inkscape:pageshadow="2" inkscape:window-height="744" inkscape:window-maximized="1" inkscape:window-width="1366" inkscape:window-x="0" inkscape:window-y="24" inkscape:zoom="7.8481082" pagecolor="#ffffff" showgrid="true"/>
  <metadata id="metadata3770">
    <rdf:RDF>
      <cc:Work rdf:about="">
        <dc:format>image/svg+xml</dc:format>
        <dc:type rdf:resource="http://purl.org/dc/dcmitype/StillImage"/>
        <dc:title/>
      </cc:Work>
    </rdf:RDF>
  </metadata>
  <g id="layer1" inkscape:groupmode="layer" inkscape:label="Layer 1" transform="translate(0,39)">
    <path d="m 26.479761,1.0544879 -8.964844,0 c -0.02345,-1.28904804 -0.03517,-2.074203 -0.03516,-2.355469 -1.8e-5,-2.906231 0.48045,-5.296854 1.441406,-7.171875 0.960916,-1.8749749 2.882791,-3.9843479 5.765625,-6.3281249 2.882785,-2.343718 4.605439,-3.878873 5.167969,-4.605468 0.867156,-1.148403 1.30075,-2.414027 1.300781,-3.796875 -3.1e-5,-1.921836 -0.773468,-3.562459 -2.320313,-4.921875 -1.523464,-1.382769 -3.585962,-2.074175 -6.1875,-2.074219 -2.507832,4.4e-5 -4.605486,0.714887 -6.292968,2.144531 -1.687515,1.429729 -2.84767,3.609414 -3.480469,6.539063 l -9.0703128,-1.125 c 0.257809,-4.195272 2.0390571,-7.757768 5.3437498,-10.6875 3.328113,-2.929637 7.687483,-4.39448 13.078125,-4.394532 5.671847,5.2e-5 10.183562,1.488332 13.535157,4.464844 3.351523,2.95317 5.027303,6.398479 5.027343,10.335938 -4e-5,2.179722 -0.621134,4.24222 -1.863281,6.1875 -1.218788,1.945341 -3.843785,4.593776 -7.875,7.9453119 -2.085966,1.734397 -3.386746,3.128926 -3.902344,4.183594 -0.492214,1.054705 -0.71487,2.941422 -0.667968,5.660156 m -8.964844,13.2890631 0,-9.8789071 9.878906,0 0,9.8789071 -9.878906,0" id="path3778" inkscape:connector-curvature="0" style="font-size:72px;font-style:normal;font-variant:normal;font-weight:bold;font-stretch:normal;line-height:125%;letter-spacing:0px;word-spacing:0px;fill:&fill_color;;fill-opacity:1;fill-rule:nonzero;stroke:&stroke_color;;stroke-width:2.20000005;stroke-miterlimit:4;stroke-opacity:1;stroke-dasharray:none;font-family:Arial;-inkscape-font-specification:Arial Bold"/>
    <path d="m 42.571486,-7.9938356 c -1.10877,0 -2.018763,0.91 -2.018763,2.0187 l 0,4.6297 -3.283849,-3.2839 c -0.784855,-0.7832 -2.043082,-0.7848 -2.826264,0 -0.783183,0.7849 -0.784823,2.07 0,2.8532 l 3.310766,3.2838998 -4.683521,0 c -1.10877,0 -2.018762,0.9099 -2.018762,2.0187 0,1.1088 0.909992,1.9919 2.018762,1.9919 l 4.656605,0 -3.28385,3.2838 c -0.783181,0.7849 -0.784823,2.0699998 0,2.8531998 0.784855,0.7832 2.07,0.7579 2.85318,-0.027 l 3.256933,-3.2838998 0,4.6834998 c 0,1.1088 0.909993,1.9919 2.018763,1.9919 1.108769,0 1.991843,-0.8831 1.991843,-1.9919 l 0,-4.7103998 3.337683,3.3107998 c 0.784853,0.7831 2.043082,0.7848 2.826262,0 0.783182,-0.7849 0.784858,-2.0430998 0,-2.8262998 l -3.310765,-3.2838 4.656607,0 c 1.10877,0 1.991844,-0.8831 1.991844,-1.9919 0,-1.1088 -0.883074,-2.0188 -1.991844,-2.0188 l -4.683523,0 3.310765,-3.3375998 c 0.783182,-0.7849 0.784857,-2.0162 0,-2.7994 -0.784854,-0.7832 -2.043082,-0.8118 -2.826263,-0.027 l -3.310766,3.3377 0,-4.6566 c 0,-1.1087 -0.883074,-2.0187 -1.991843,-2.0187 z" id="rect3894" inkscape:connector-curvature="0" style="fill:&fill_color;;fill-opacity:1;stroke:&stroke_color;;stroke-width:1.72267997;stroke-linecap:round;stroke-linejoin:round;stroke-miterlimit:4;stroke-opacity:1;stroke-dasharray:none"/>
  </g>
</svg>